<svg width="43" height="43" viewBox="0 0 43 43" fill="none" xmlns="http://www.w3.org/2000/svg">
<path d="M8.64778 18.6094C12.0878 25.37 17.63 30.8883 24.3906 34.3522L29.6461 29.0967C30.2911 28.4517 31.2467 28.2367 32.0828 28.5233C34.7583 29.4072 37.6489 29.885 40.6111 29.885C41.925 29.885 43 30.96 43 32.2739V40.6111C43 41.925 41.925 43 40.6111 43C18.1794 43 0 24.8206 0 2.38889C0 1.075 1.075 0 2.38889 0H10.75C12.0639 0 13.1389 1.075 13.1389 2.38889C13.1389 5.375 13.6167 8.24167 14.5006 10.9172C14.7633 11.7533 14.5722 12.685 13.9033 13.3539L8.64778 18.6094Z" fill="white"/>
</svg>
